<svg xmlns="http://www.w3.org/2000/svg" xmlns:xlink="http://www.w3.org/1999/xlink" width="512" zoomAndPan="magnify" viewBox="0 0 384 131.249995" height="175" preserveAspectRatio="xMidYMid meet" version="1.0"><defs><g/><clipPath id="id1"><path d="M 1.089844 0 L 382.90625 0 L 382.90625 130.503906 L 1.089844 130.503906 Z M 1.089844 0 " clip-rule="nonzero"/></clipPath><clipPath id="id2"><path d="M 23.046875 85.570312 L 154.234375 85.570312 L 154.234375 120.304688 L 23.046875 120.304688 Z M 23.046875 85.570312 " clip-rule="nonzero"/></clipPath><clipPath id="id3"><path d="M 92 4.714844 L 98 4.714844 L 98 20 L 92 20 Z M 92 4.714844 " clip-rule="nonzero"/></clipPath><clipPath id="id4"><path d="M 78 4.714844 L 84 4.714844 L 84 19 L 78 19 Z M 78 4.714844 " clip-rule="nonzero"/></clipPath><clipPath id="id5"><path d="M 295.125 114 L 366 114 L 366 117 L 295.125 117 Z M 159 114 L 276.667969 114 L 276.667969 117 L 159 117 Z M 159 114 " clip-rule="nonzero"/></clipPath></defs><g clip-path="url(#id1)"><path fill="#ffffff" d="M 1.089844 0 L 382.910156 0 L 382.910156 137.960938 L 1.089844 137.960938 Z M 1.089844 0 " fill-opacity="1" fill-rule="nonzero"/><path fill="#ffffff" d="M 1.089844 0 L 382.910156 0 L 382.910156 130.503906 L 1.089844 130.503906 Z M 1.089844 0 " fill-opacity="1" fill-rule="nonzero"/><path fill="#ffffff" d="M 1.089844 0 L 382.910156 0 L 382.910156 130.503906 L 1.089844 130.503906 Z M 1.089844 0 " fill-opacity="1" fill-rule="nonzero"/><path fill="#ffffff" d="M 1.089844 0 L 382.910156 0 L 382.910156 130.503906 L 1.089844 130.503906 Z M 1.089844 0 " fill-opacity="1" fill-rule="nonzero"/></g><g clip-path="url(#id2)"><path fill="#f08d1e" d="M 94.667969 113.089844 L 93.734375 114.460938 C 92.578125 116.15625 90.675781 117.167969 88.640625 117.167969 C 86.605469 117.167969 84.703125 116.15625 83.546875 114.460938 L 82.613281 113.089844 L 29.238281 113.089844 L 32.222656 109.015625 L 35.699219 109.082031 C 36.128906 109.089844 36.554688 109.09375 36.972656 109.09375 C 45.890625 109.09375 51.992188 107.261719 57.894531 105.492188 C 61.542969 104.394531 64.992188 103.359375 68.980469 102.8125 C 69.914062 102.6875 70.855469 102.621094 71.78125 102.621094 C 80.589844 102.621094 86.304688 108.496094 86.359375 108.554688 L 88.640625 110.9375 L 90.921875 108.554688 C 90.976562 108.496094 96.691406 102.621094 105.5 102.621094 C 106.425781 102.621094 107.367188 102.6875 108.300781 102.8125 C 112.289062 103.359375 115.738281 104.394531 119.386719 105.492188 C 125.289062 107.261719 131.390625 109.09375 140.308594 109.09375 C 140.726562 109.09375 141.152344 109.089844 141.582031 109.082031 L 145.058594 109.015625 L 148.042969 113.089844 Z M 146.492188 105.664062 L 126.628906 85.59375 L 124.210938 85.59375 L 141.519531 105.945312 C 126.757812 106.234375 119.792969 101.21875 108.726562 99.707031 C 96.488281 98.035156 88.640625 106.398438 88.640625 106.398438 C 88.640625 106.398438 80.792969 98.035156 68.554688 99.707031 C 57.488281 101.21875 50.523438 106.234375 35.761719 105.945312 L 53.070312 85.59375 L 50.652344 85.59375 L 30.789062 105.664062 L 23.046875 116.226562 L 80.953125 116.226562 C 82.628906 118.683594 85.441406 120.304688 88.640625 120.304688 C 91.839844 120.304688 94.652344 118.683594 96.328125 116.226562 L 154.234375 116.226562 L 146.492188 105.664062 " fill-opacity="1" fill-rule="nonzero"/></g><path fill="#f08d1e" d="M 34.542969 111.496094 C 34.195312 111.496094 33.914062 111.214844 33.914062 110.867188 C 33.914062 110.519531 34.195312 110.238281 34.542969 110.238281 C 46.488281 110.238281 55.277344 108.042969 60.847656 106.390625 L 61.035156 106.335938 C 65.367188 105.050781 69.457031 103.839844 74.066406 104.804688 C 80.148438 106.074219 84.660156 109.835938 84.847656 109.996094 C 85.113281 110.21875 85.144531 110.613281 84.921875 110.878906 C 84.699219 111.144531 84.304688 111.179688 84.039062 110.957031 C 83.996094 110.917969 79.570312 107.234375 73.808594 106.03125 C 69.511719 105.132812 65.566406 106.300781 61.390625 107.539062 L 61.207031 107.59375 C 55.558594 109.269531 46.652344 111.496094 34.542969 111.496094 " fill-opacity="1" fill-rule="nonzero"/><path fill="#f08d1e" d="M 52.039062 112.121094 C 51.691406 112.121094 51.410156 111.839844 51.410156 111.496094 C 51.410156 111.148438 51.691406 110.867188 52.039062 110.867188 C 52.058594 110.867188 54.546875 110.816406 62.195312 108.476562 C 65.617188 107.429688 69.277344 106.480469 73.128906 107.28125 C 77.246094 108.144531 80.355469 110.261719 80.484375 110.351562 C 80.769531 110.546875 80.839844 110.9375 80.644531 111.222656 C 80.445312 111.507812 80.054688 111.578125 79.769531 111.382812 C 79.742188 111.363281 76.734375 109.316406 72.871094 108.511719 C 69.308594 107.765625 65.960938 108.636719 62.5625 109.675781 C 54.65625 112.09375 52.140625 112.121094 52.039062 112.121094 " fill-opacity="1" fill-rule="nonzero"/><path fill="#f08d1e" d="M 65.691406 111.496094 C 65.421875 111.496094 65.175781 111.324219 65.089844 111.054688 C 64.988281 110.722656 65.171875 110.371094 65.503906 110.269531 C 70.769531 108.621094 74.425781 110.226562 74.582031 110.296875 C 74.894531 110.4375 75.035156 110.808594 74.894531 111.125 C 74.75 111.441406 74.378906 111.582031 74.066406 111.441406 C 74.03125 111.425781 70.664062 109.96875 65.878906 111.464844 C 65.816406 111.484375 65.753906 111.496094 65.691406 111.496094 " fill-opacity="1" fill-rule="nonzero"/><path fill="#f08d1e" d="M 142.738281 111.496094 C 130.628906 111.496094 121.722656 109.269531 116.074219 107.59375 L 115.890625 107.539062 C 111.714844 106.300781 107.769531 105.132812 103.472656 106.03125 C 97.699219 107.238281 93.285156 110.917969 93.242188 110.953125 C 92.976562 111.179688 92.582031 111.144531 92.359375 110.878906 C 92.136719 110.617188 92.167969 110.21875 92.433594 109.996094 C 92.621094 109.835938 97.132812 106.074219 103.21875 104.804688 C 107.820312 103.839844 111.914062 105.050781 116.246094 106.335938 L 116.429688 106.390625 C 122.003906 108.042969 130.792969 110.238281 142.738281 110.238281 C 143.085938 110.238281 143.367188 110.519531 143.367188 110.867188 C 143.367188 111.214844 143.085938 111.496094 142.738281 111.496094 " fill-opacity="1" fill-rule="nonzero"/><path fill="#f08d1e" d="M 125.242188 112.121094 C 125.140625 112.121094 122.625 112.09375 114.71875 109.675781 C 111.316406 108.636719 107.96875 107.765625 104.410156 108.511719 C 100.546875 109.316406 97.539062 111.363281 97.511719 111.382812 C 97.226562 111.578125 96.832031 111.507812 96.636719 111.222656 C 96.441406 110.9375 96.511719 110.546875 96.796875 110.351562 C 96.925781 110.261719 100.035156 108.144531 104.152344 107.28125 C 108.003906 106.480469 111.664062 107.433594 115.085938 108.476562 C 122.734375 110.816406 125.222656 110.867188 125.246094 110.867188 C 125.589844 110.871094 125.871094 111.152344 125.867188 111.496094 C 125.867188 111.84375 125.589844 112.121094 125.242188 112.121094 " fill-opacity="1" fill-rule="nonzero"/><path fill="#f08d1e" d="M 111.589844 111.496094 C 111.527344 111.496094 111.464844 111.484375 111.402344 111.464844 C 106.585938 109.960938 103.25 111.425781 103.21875 111.4375 C 102.902344 111.582031 102.53125 111.441406 102.386719 111.125 C 102.246094 110.808594 102.386719 110.4375 102.699219 110.296875 C 102.855469 110.226562 106.511719 108.621094 111.777344 110.269531 C 112.109375 110.371094 112.292969 110.722656 112.191406 111.054688 C 112.105469 111.324219 111.859375 111.496094 111.589844 111.496094 " fill-opacity="1" fill-rule="nonzero"/><path fill="#4c764a" d="M 79.351562 38.933594 C 78.859375 41.007812 78.664062 43.453125 79.777344 45.53125 C 80.714844 47.28125 82.824219 48.351562 83.558594 50.277344 C 83.558594 50.277344 83.566406 47.449219 81.164062 44.648438 C 81.164062 44.648438 83.402344 46.621094 83.886719 49.703125 C 84.238281 48.851562 84.453125 47.21875 83.699219 44.449219 C 83.367188 43.238281 82.503906 42.363281 81.605469 41.578125 C 80.746094 40.832031 79.753906 40.023438 79.351562 38.933594 " fill-opacity="1" fill-rule="nonzero"/><path fill="#4c764a" d="M 69.945312 45.039062 C 69.953125 47.644531 70.417969 50.605469 72.332031 52.761719 C 73.941406 54.570312 76.753906 55.246094 78.171875 57.324219 C 78.171875 57.324219 77.378906 53.960938 73.726562 51.316406 C 73.726562 51.316406 76.949219 53.023438 78.402344 56.550781 C 78.574219 55.4375 78.363281 53.433594 76.679688 50.359375 C 75.945312 49.015625 74.667969 48.21875 73.375 47.542969 C 72.144531 46.902344 70.738281 46.222656 69.945312 45.039062 " fill-opacity="1" fill-rule="nonzero"/><path fill="#4c764a" d="M 109.15625 57.734375 C 110.84375 57.363281 112.089844 56.023438 113.203125 54.613281 C 114.269531 53.265625 115.425781 51.703125 116.949219 51.183594 C 114.09375 50.023438 110.714844 49.308594 107.800781 50.878906 C 105.347656 52.203125 103.785156 55.636719 101.097656 56.585938 C 101.097656 56.585938 105.011719 57.042969 108.972656 53.382812 C 108.972656 53.382812 106.164062 56.894531 101.878906 57.238281 C 103.046875 57.96875 105.300781 58.585938 109.15625 57.734375 " fill-opacity="1" fill-rule="nonzero"/><path fill="#4c764a" d="M 109.503906 62.710938 C 106.757812 62.554688 103.902344 64.707031 101.105469 64.105469 C 101.105469 64.105469 104.390625 66.582031 109.480469 65.507812 C 109.480469 65.507812 105.480469 67.0625 101.519531 65.085938 C 102.25 66.339844 103.988281 68.078125 107.785156 69.382812 C 109.445312 69.957031 111.125 69.457031 112.71875 68.824219 C 114.242188 68.21875 115.9375 67.476562 117.515625 67.835938 C 115.46875 65.3125 112.769531 62.894531 109.503906 62.710938 " fill-opacity="1" fill-rule="nonzero"/><path fill="#4c764a" d="M 96.910156 52.175781 C 98.226562 52.082031 100.378906 51.234375 103.125 48.171875 C 104.328125 46.832031 104.695312 44.945312 104.921875 43.074219 C 105.136719 41.289062 105.324219 39.269531 106.320312 37.90625 C 103.410156 38.660156 100.289062 40.105469 98.664062 43.207031 C 97.296875 45.816406 97.695312 49.660156 95.953125 52.097656 C 95.953125 52.097656 99.386719 50.105469 100.847656 44.605469 C 100.847656 44.605469 100.257812 49.28125 96.910156 52.175781 " fill-opacity="1" fill-rule="nonzero"/><path fill="#4c764a" d="M 90.6875 31.390625 C 88.777344 34.054688 87.074219 37.421875 87.445312 41.027344 C 87.757812 44.0625 90.136719 46.816406 90.058594 49.980469 C 90.058594 49.980469 91.722656 45.964844 89.933594 40.578125 C 89.933594 40.578125 91.972656 44.691406 90.859375 49.363281 C 91.855469 48.351562 93.113281 46.148438 93.65625 41.773438 C 93.894531 39.859375 93.171875 38.105469 92.351562 36.46875 C 91.566406 34.90625 90.628906 33.175781 90.6875 31.390625 " fill-opacity="1" fill-rule="nonzero"/><path fill="#4c764a" d="M 97.390625 34.007812 C 97.390625 34.007812 99.675781 31.453125 99.613281 26.613281 C 99.613281 26.613281 100.183594 30.542969 98.167969 33.804688 C 99.191406 33.363281 100.710938 32.085938 102.214844 28.855469 C 102.871094 27.441406 102.746094 25.820312 102.507812 24.25 C 102.28125 22.753906 101.980469 21.074219 102.46875 19.699219 C 100.324219 21.113281 98.167969 23.144531 97.566406 26.09375 C 97.058594 28.570312 98.230469 31.5625 97.390625 34.007812 " fill-opacity="1" fill-rule="nonzero"/><path fill="#4c764a" d="M 89.152344 18.875 C 88.886719 17.523438 88.542969 16.003906 88.933594 14.726562 C 87.039062 16.125 85.15625 18.085938 84.726562 20.804688 C 84.367188 23.089844 85.554688 25.757812 84.886719 28.03125 C 84.886719 28.03125 86.867188 25.585938 86.613281 21.175781 C 86.613281 21.175781 87.289062 24.734375 85.585938 27.808594 C 86.5 27.355469 87.835938 26.113281 89.070312 23.089844 C 89.609375 21.769531 89.429688 20.296875 89.152344 18.875 " fill-opacity="1" fill-rule="nonzero"/><g clip-path="url(#id3)"><path fill="#4c764a" d="M 97.308594 9.265625 C 97.015625 7.78125 96.640625 6.117188 97.066406 4.714844 C 94.992188 6.246094 92.925781 8.398438 92.457031 11.378906 C 92.0625 13.886719 93.363281 16.8125 92.632812 19.300781 C 92.632812 19.300781 94.800781 16.621094 94.523438 11.789062 C 94.523438 11.789062 95.265625 15.6875 93.398438 19.058594 C 94.402344 18.5625 95.863281 17.199219 97.21875 13.886719 C 97.808594 12.4375 97.613281 10.820312 97.308594 9.265625 " fill-opacity="1" fill-rule="nonzero"/></g><path fill="#4c764a" d="M 120.027344 38.628906 C 117.539062 38.171875 114.683594 38.171875 112.527344 39.96875 C 110.710938 41.484375 109.917969 44.578125 107.859375 45.828125 C 107.859375 45.828125 111.117188 45.523438 113.832031 41.824219 C 113.832031 41.824219 112.03125 45.199219 108.585938 46.230469 C 109.640625 46.625 111.566406 46.742188 114.589844 45.371094 C 115.914062 44.769531 116.742188 43.453125 117.457031 42.097656 C 118.132812 40.804688 118.859375 39.320312 120.027344 38.628906 " fill-opacity="1" fill-rule="nonzero"/><path fill="#4c764a" d="M 111.148438 25.25 C 111.148438 25.25 110.5 29.136719 107.601562 31.421875 C 108.707031 31.398438 110.539062 30.777344 112.9375 28.324219 C 113.988281 27.25 114.359375 25.6875 114.609375 24.132812 C 114.847656 22.652344 115.070312 20.96875 115.949219 19.867188 C 113.488281 20.378906 110.824219 21.464844 109.363281 23.992188 C 108.132812 26.117188 108.339844 29.351562 106.804688 31.320312 C 106.804688 31.320312 109.746094 29.792969 111.148438 25.25 " fill-opacity="1" fill-rule="nonzero"/><path fill="#4c764a" d="M 107.433594 14.023438 C 107.433594 14.023438 106.902344 17.214844 104.523438 19.09375 C 105.429688 19.074219 106.933594 18.5625 108.90625 16.546875 C 109.765625 15.667969 110.070312 14.382812 110.277344 13.109375 C 110.472656 11.890625 110.652344 10.507812 111.375 9.601562 C 109.355469 10.027344 107.167969 10.917969 105.96875 12.992188 C 104.957031 14.738281 105.128906 17.394531 103.867188 19.007812 C 103.867188 19.007812 106.28125 17.753906 107.433594 14.023438 " fill-opacity="1" fill-rule="nonzero"/><path fill="#4c764a" d="M 119.546875 55.269531 C 117.53125 56.429688 116.296875 59.332031 114.078125 60.191406 C 114.078125 60.191406 117.347656 60.476562 120.574219 57.324219 C 120.574219 57.324219 118.300781 60.324219 114.738281 60.714844 C 115.726562 61.296875 117.617188 61.753906 120.8125 60.949219 C 122.210938 60.59375 123.21875 59.449219 124.121094 58.246094 C 124.980469 57.097656 125.914062 55.765625 127.171875 55.296875 C 124.769531 54.398438 121.945312 53.886719 119.546875 55.269531 " fill-opacity="1" fill-rule="nonzero"/><path fill="#4c764a" d="M 124.289062 41.539062 C 122.273438 42.699219 121.042969 45.601562 118.820312 46.460938 C 118.820312 46.460938 122.089844 46.746094 125.316406 43.59375 C 125.316406 43.59375 123.046875 46.589844 119.484375 46.984375 C 120.472656 47.566406 122.359375 48.023438 125.554688 47.21875 C 126.953125 46.867188 127.964844 45.71875 128.863281 44.515625 C 129.722656 43.367188 130.65625 42.035156 131.914062 41.566406 C 129.515625 40.667969 126.6875 40.15625 124.289062 41.539062 " fill-opacity="1" fill-rule="nonzero"/><path fill="#4c764a" d="M 120.664062 31.777344 C 120.664062 31.777344 118.390625 34.773438 114.828125 35.167969 C 115.816406 35.746094 117.707031 36.207031 120.902344 35.398438 C 122.300781 35.046875 123.308594 33.902344 124.210938 32.699219 C 125.070312 31.550781 126.003906 30.21875 127.261719 29.746094 C 124.859375 28.851562 122.035156 28.335938 119.636719 29.71875 C 117.621094 30.882812 116.386719 33.78125 114.167969 34.640625 C 114.167969 34.640625 117.4375 34.925781 120.664062 31.777344 " fill-opacity="1" fill-rule="nonzero"/><path fill="#4c764a" d="M 72.902344 58.839844 C 70.082031 58.4375 67.875 55.378906 65.210938 54.566406 C 62.042969 53.597656 58.871094 54.964844 56.300781 56.664062 C 57.898438 56.871094 59.339844 58.175781 60.648438 59.289062 C 62.019531 60.449219 63.503906 61.519531 65.230469 61.550781 C 69.179688 61.628906 71.269531 60.578125 72.269531 59.632812 C 68 60.140625 64.550781 57.246094 64.550781 57.246094 C 69.15625 60.0625 72.902344 58.839844 72.902344 58.839844 " fill-opacity="1" fill-rule="nonzero"/><path fill="#4c764a" d="M 74.796875 64.769531 C 72.5 65.363281 70.0625 63.679688 67.792969 63.902344 C 65.09375 64.164062 62.941406 66.257812 61.332031 68.421875 C 62.628906 68.070312 64.058594 68.628906 65.339844 69.074219 C 66.679688 69.546875 68.089844 69.902344 69.445312 69.371094 C 72.546875 68.15625 73.929688 66.660156 74.488281 65.597656 C 71.277344 67.371094 67.910156 66.214844 67.910156 66.214844 C 72.160156 66.9375 74.796875 64.769531 74.796875 64.769531 " fill-opacity="1" fill-rule="nonzero"/><path fill="#4c764a" d="M 68.253906 48.09375 C 66.804688 46.140625 67.019531 43.082031 65.867188 40.996094 C 64.492188 38.515625 61.96875 37.339844 59.632812 36.71875 C 60.460938 37.808594 60.660156 39.421875 60.878906 40.84375 C 61.109375 42.335938 61.449219 43.839844 62.441406 44.914062 C 64.707031 47.375 66.445312 48.066406 67.492188 48.148438 C 64.753906 45.820312 64.160156 42.09375 64.160156 42.09375 C 65.46875 46.484375 68.253906 48.09375 68.253906 48.09375 " fill-opacity="1" fill-rule="nonzero"/><path fill="#4c764a" d="M 75.601562 38.945312 C 74.339844 37.042969 74.679688 34.199219 73.695312 32.191406 C 72.523438 29.800781 70.21875 28.5625 68.066406 27.847656 C 68.792969 28.914062 68.902344 30.429688 69.042969 31.765625 C 69.1875 33.167969 69.4375 34.589844 70.316406 35.652344 C 72.324219 38.074219 73.914062 38.816406 74.890625 38.953125 C 72.4375 36.625 72.054688 33.117188 72.054688 33.117188 C 73.074219 37.285156 75.601562 38.945312 75.601562 38.945312 " fill-opacity="1" fill-rule="nonzero"/><path fill="#4c764a" d="M 58.75 20.644531 C 60.890625 22.457031 62.417969 22.839844 63.308594 22.785156 C 60.78125 21.136719 59.929688 18.054688 59.929688 18.054688 C 61.445312 21.617188 63.945312 22.648438 63.945312 22.648438 C 62.539062 21.167969 62.433594 18.554688 61.261719 16.925781 C 59.871094 14.988281 57.636719 14.289062 55.613281 14.039062 C 56.414062 14.867188 56.734375 16.207031 57.050781 17.382812 C 57.386719 18.617188 57.816406 19.851562 58.75 20.644531 " fill-opacity="1" fill-rule="nonzero"/><path fill="#4c764a" d="M 45.796875 28.679688 C 46.347656 29.820312 46.992188 30.933594 48.050781 31.5 C 50.46875 32.792969 52.023438 32.820312 52.882812 32.566406 C 50.121094 31.519531 48.726562 28.683594 48.726562 28.683594 C 50.851562 31.839844 53.476562 32.285156 53.476562 32.285156 C 51.835938 31.148438 51.253906 28.601562 49.8125 27.269531 C 48.101562 25.679688 45.796875 25.503906 43.78125 25.71875 C 44.710938 26.351562 45.269531 27.59375 45.796875 28.679688 " fill-opacity="1" fill-rule="nonzero"/><path fill="#4c764a" d="M 70.136719 20.644531 C 68.582031 17.503906 69.359375 14.105469 69.359375 14.105469 C 68.96875 18.371094 70.8125 20.925781 70.8125 20.925781 C 70.238281 18.65625 71.480469 16.167969 71.203125 13.914062 C 70.878906 11.230469 69.113281 9.15625 67.316406 7.628906 C 67.652344 8.90625 67.269531 10.351562 66.964844 11.644531 C 66.648438 13 66.425781 14.414062 66.90625 15.75 C 68.007812 18.796875 69.261719 20.125 70.136719 20.644531 " fill-opacity="1" fill-rule="nonzero"/><g clip-path="url(#id4)"><path fill="#4c764a" d="M 81.121094 18.648438 C 81.175781 16.308594 83.03125 14.359375 83.371094 12.132812 C 83.769531 9.480469 82.628906 6.925781 81.308594 4.882812 C 81.292969 6.207031 80.535156 7.449219 79.902344 8.574219 C 79.234375 9.753906 78.640625 11.019531 78.75 12.445312 C 78.996094 15.703125 79.847656 17.375 80.546875 18.160156 C 79.890625 14.667969 81.542969 11.703125 81.542969 11.703125 C 80.03125 15.617188 81.121094 18.648438 81.121094 18.648438 " fill-opacity="1" fill-rule="nonzero"/></g><path fill="#4c764a" d="M 80.945312 26.613281 C 80.101562 23.703125 77.78125 21.789062 75.527344 20.492188 C 76.128906 21.835938 75.960938 23.53125 75.859375 25.035156 C 75.753906 26.613281 75.761719 28.238281 76.53125 29.617188 C 78.292969 32.757812 79.917969 33.953125 80.976562 34.339844 C 78.695312 31.191406 78.945312 27.238281 78.945312 27.238281 C 79.277344 32.070312 81.769531 34.5 81.769531 34.5 C 80.730469 32.105469 81.652344 29.058594 80.945312 26.613281 " fill-opacity="1" fill-rule="nonzero"/><path fill="#4c764a" d="M 57.246094 45.460938 C 54.777344 44.117188 51.980469 44.679688 49.628906 45.617188 C 50.910156 46.066406 51.914062 47.382812 52.832031 48.515625 C 53.800781 49.703125 54.871094 50.828125 56.285156 51.160156 C 59.523438 51.910156 61.386719 51.417969 62.34375 50.820312 C 58.761719 50.488281 56.332031 47.53125 56.332031 47.53125 C 59.722656 50.628906 62.976562 50.285156 62.976562 50.285156 C 60.710938 49.464844 59.324219 46.585938 57.246094 45.460938 " fill-opacity="1" fill-rule="nonzero"/><path fill="#4c764a" d="M 58.9375 32.320312 C 61.773438 34.253906 63.691406 34.503906 64.78125 34.308594 C 61.488281 32.636719 60.085938 28.957031 60.085938 28.957031 C 62.355469 33.132812 65.542969 34.050781 65.542969 34.050781 C 63.648438 32.425781 63.214844 29.214844 61.589844 27.371094 C 59.660156 25.179688 56.835938 24.640625 54.320312 24.621094 C 55.398438 25.527344 55.949219 27.132812 56.472656 28.542969 C 57.027344 30.015625 57.695312 31.476562 58.9375 32.320312 " fill-opacity="1" fill-rule="nonzero"/><path fill="#4c764a" d="M 52.113281 62.882812 C 55.898438 65.335938 59.046875 64.414062 59.046875 64.414062 C 56.699219 64.007812 54.921875 61.40625 52.71875 60.664062 C 50.09375 59.777344 47.421875 60.839844 45.246094 62.191406 C 46.574219 62.402344 47.75 63.527344 48.816406 64.484375 C 49.9375 65.484375 51.15625 66.410156 52.59375 66.480469 C 55.886719 66.644531 57.648438 65.820312 58.5 65.058594 C 54.929688 65.375 52.113281 62.882812 52.113281 62.882812 " fill-opacity="1" fill-rule="nonzero"/><path fill="#4c764a" d="M 53.582031 53.789062 C 50.011719 54.105469 47.195312 51.609375 47.195312 51.609375 C 50.980469 54.066406 54.128906 53.144531 54.128906 53.144531 C 51.78125 52.738281 50.003906 50.136719 47.796875 49.390625 C 45.175781 48.507812 42.503906 49.570312 40.328125 50.917969 C 41.652344 51.132812 42.832031 52.257812 43.898438 53.210938 C 45.019531 54.214844 46.234375 55.140625 47.675781 55.210938 C 50.964844 55.371094 52.726562 54.550781 53.582031 53.789062 " fill-opacity="1" fill-rule="nonzero"/><path fill="#4c764a" d="M 48.722656 42.390625 C 52.015625 42.550781 53.777344 41.730469 54.628906 40.96875 C 51.058594 41.28125 48.242188 38.789062 48.242188 38.789062 C 52.027344 41.246094 55.175781 40.324219 55.175781 40.324219 C 52.832031 39.917969 51.050781 37.316406 48.84375 36.570312 C 46.222656 35.6875 43.554688 36.746094 41.375 38.097656 C 42.703125 38.3125 43.878906 39.433594 44.945312 40.390625 C 46.066406 41.394531 47.285156 42.320312 48.722656 42.390625 " fill-opacity="1" fill-rule="nonzero"/><path fill="#64615f" d="M 88.640625 78.472656 C 76.585938 69.769531 55.007812 75.042969 55.007812 75.042969 C 79.414062 80.714844 88.640625 101.941406 88.640625 101.941406 C 88.640625 101.941406 97.867188 80.714844 122.273438 75.042969 C 122.273438 75.042969 100.695312 69.769531 88.640625 78.472656 " fill-opacity="1" fill-rule="nonzero"/><path fill="#64615f" d="M 80.082031 63.011719 C 80.082031 68.582031 83.914062 73.097656 88.640625 73.097656 C 93.367188 73.097656 97.199219 68.582031 97.199219 63.011719 C 97.199219 57.441406 93.367188 52.925781 88.640625 52.925781 C 83.914062 52.925781 80.082031 57.441406 80.082031 63.011719 " fill-opacity="1" fill-rule="nonzero"/><g fill="#64615f" fill-opacity="0.4"><g transform="translate(158.737295, 80.549025)"><g><path d="M 17.640625 -6.59375 C 23.492188 -6.59375 26.421875 -8.929688 26.421875 -13.609375 C 26.421875 -16.054688 25.128906 -17.863281 22.546875 -19.03125 C 21.179688 -19.71875 19.410156 -20.351562 17.234375 -20.9375 C 15.066406 -21.519531 13.257812 -22.113281 11.8125 -22.71875 C 10.375 -23.332031 8.925781 -24.175781 7.46875 -25.25 C 4.582031 -27.394531 3.140625 -30.703125 3.140625 -35.171875 C 3.140625 -39.640625 4.6875 -43.15625 7.78125 -45.71875 C 10.882812 -48.28125 14.9375 -49.5625 19.9375 -49.5625 C 24.945312 -49.5625 29.597656 -48.5625 33.890625 -46.5625 L 33.890625 -35.578125 L 26.421875 -35.0625 L 26.421875 -39.3125 C 26.421875 -40.039062 26.328125 -40.578125 26.140625 -40.921875 C 25.597656 -41.847656 23.875 -42.3125 20.96875 -42.3125 C 18.0625 -42.3125 15.910156 -41.796875 14.515625 -40.765625 C 13.128906 -39.742188 12.4375 -38.160156 12.4375 -36.015625 C 12.4375 -34.453125 13.023438 -33.085938 14.203125 -31.921875 C 14.984375 -31.140625 16.140625 -30.488281 17.671875 -29.96875 C 19.210938 -29.457031 20.847656 -28.929688 22.578125 -28.390625 C 24.316406 -27.859375 25.851562 -27.273438 27.1875 -26.640625 C 28.53125 -26.003906 29.9375 -25.128906 31.40625 -24.015625 C 34.382812 -21.816406 35.875 -18.421875 35.875 -13.828125 C 35.875 -9.242188 34.222656 -5.632812 30.921875 -3 C 27.628906 -0.363281 23.285156 0.953125 17.890625 0.953125 C 12.503906 0.953125 7.664062 -0.046875 3.375 -2.046875 L 3.375 -13.609375 L 10.828125 -14.125 L 10.828125 -9.65625 C 10.828125 -8.925781 10.925781 -8.390625 11.125 -8.046875 C 11.320312 -7.710938 11.921875 -7.382812 12.921875 -7.0625 C 13.921875 -6.75 15.492188 -6.59375 17.640625 -6.59375 Z M 17.640625 -6.59375 "/></g></g></g><g fill="#64615f" fill-opacity="0.4"><g transform="translate(196.946084, 80.549025)"><g><path d="M 4.984375 -8.203125 L 16.765625 -42.3125 L 12.15625 -42.75 L 12.15625 -48.6875 L 28.921875 -48.6875 L 43.84375 -6.4375 L 43.921875 -6.4375 L 48.09375 -6.21875 L 48.09375 0 L 29.203125 0 L 29.203125 -5.921875 L 31.984375 -6.15625 C 32.816406 -6.25 33.378906 -6.441406 33.671875 -6.734375 C 33.960938 -7.023438 33.988281 -7.5625 33.75 -8.34375 L 32.203125 -12.890625 L 15.078125 -12.890625 L 12.890625 -6.4375 L 17.28125 -6.21875 L 17.28125 0 L 0.359375 0 L 0.359375 -5.921875 L 2.78125 -6.15625 C 3.800781 -6.25 4.535156 -6.929688 4.984375 -8.203125 Z M 23.640625 -40.484375 L 16.84375 -19.625 L 30.453125 -19.625 L 23.859375 -40.484375 Z M 23.640625 -40.484375 "/></g></g></g><g fill="#64615f" fill-opacity="0.4"><g transform="translate(245.402437, 80.549025)"><g><path d="M 2.484375 0 L 2.484375 -5.921875 L 4.90625 -6.15625 C 6.320312 -6.300781 7.03125 -6.984375 7.03125 -8.203125 L 7.03125 -42.234375 L 2.859375 -42.453125 L 2.859375 -48.6875 L 38.21875 -48.6875 L 38.21875 -36.53125 L 30.75 -36.015625 L 30.75 -38.9375 C 30.75 -39.769531 30.625 -40.359375 30.375 -40.703125 C 30.132812 -41.046875 29.550781 -41.21875 28.625 -41.21875 L 15.953125 -41.21875 L 15.953125 -28.25 L 33.96875 -28.25 L 33.96875 -20.796875 L 15.953125 -20.796875 L 15.953125 -6.4375 L 22.46875 -6.21875 L 22.46875 0 Z M 2.484375 0 "/></g></g></g><g fill="#64615f" fill-opacity="0.4"><g transform="translate(285.148357, 80.549025)"><g><path d="M 4.984375 -8.203125 L 16.765625 -42.3125 L 12.15625 -42.75 L 12.15625 -48.6875 L 28.921875 -48.6875 L 43.84375 -6.4375 L 43.921875 -6.4375 L 48.09375 -6.21875 L 48.09375 0 L 29.203125 0 L 29.203125 -5.921875 L 31.984375 -6.15625 C 32.816406 -6.25 33.378906 -6.441406 33.671875 -6.734375 C 33.960938 -7.023438 33.988281 -7.5625 33.75 -8.34375 L 32.203125 -12.890625 L 15.078125 -12.890625 L 12.890625 -6.4375 L 17.28125 -6.21875 L 17.28125 0 L 0.359375 0 L 0.359375 -5.921875 L 2.78125 -6.15625 C 3.800781 -6.25 4.535156 -6.929688 4.984375 -8.203125 Z M 23.640625 -40.484375 L 16.84375 -19.625 L 30.453125 -19.625 L 23.859375 -40.484375 Z M 23.640625 -40.484375 "/></g></g></g><g fill="#64615f" fill-opacity="0.4"><g transform="translate(333.604709, 80.549025)"><g><path d="M 37.109375 0 L 2.34375 0 L 2.34375 -5.921875 L 4.765625 -6.15625 C 6.171875 -6.300781 6.875 -6.984375 6.875 -8.203125 L 6.875 -42.234375 L 2.703125 -42.453125 L 2.703125 -48.6875 L 20.34375 -48.6875 L 20.34375 -42.75 L 17.9375 -42.53125 C 16.519531 -42.382812 15.8125 -41.601562 15.8125 -40.1875 L 15.8125 -7.546875 L 27.96875 -7.546875 C 28.644531 -7.546875 29.09375 -7.726562 29.3125 -8.09375 C 29.53125 -8.457031 29.640625 -9.050781 29.640625 -9.875 L 29.640625 -15 L 37.109375 -14.5 Z M 37.109375 0 "/></g></g></g><g fill="#4c764a" fill-opacity="1"><g transform="translate(155.502305, 77.314028)"><g><path d="M 17.640625 -6.59375 C 23.492188 -6.59375 26.421875 -8.929688 26.421875 -13.609375 C 26.421875 -16.054688 25.128906 -17.863281 22.546875 -19.03125 C 21.179688 -19.71875 19.410156 -20.351562 17.234375 -20.9375 C 15.066406 -21.519531 13.257812 -22.113281 11.8125 -22.71875 C 10.375 -23.332031 8.925781 -24.175781 7.46875 -25.25 C 4.582031 -27.394531 3.140625 -30.703125 3.140625 -35.171875 C 3.140625 -39.640625 4.6875 -43.15625 7.78125 -45.71875 C 10.882812 -48.28125 14.9375 -49.5625 19.9375 -49.5625 C 24.945312 -49.5625 29.597656 -48.5625 33.890625 -46.5625 L 33.890625 -35.578125 L 26.421875 -35.0625 L 26.421875 -39.3125 C 26.421875 -40.039062 26.328125 -40.578125 26.140625 -40.921875 C 25.597656 -41.847656 23.875 -42.3125 20.96875 -42.3125 C 18.0625 -42.3125 15.910156 -41.796875 14.515625 -40.765625 C 13.128906 -39.742188 12.4375 -38.160156 12.4375 -36.015625 C 12.4375 -34.453125 13.023438 -33.085938 14.203125 -31.921875 C 14.984375 -31.140625 16.140625 -30.488281 17.671875 -29.96875 C 19.210938 -29.457031 20.847656 -28.929688 22.578125 -28.390625 C 24.316406 -27.859375 25.851562 -27.273438 27.1875 -26.640625 C 28.53125 -26.003906 29.9375 -25.128906 31.40625 -24.015625 C 34.382812 -21.816406 35.875 -18.421875 35.875 -13.828125 C 35.875 -9.242188 34.222656 -5.632812 30.921875 -3 C 27.628906 -0.363281 23.285156 0.953125 17.890625 0.953125 C 12.503906 0.953125 7.664062 -0.046875 3.375 -2.046875 L 3.375 -13.609375 L 10.828125 -14.125 L 10.828125 -9.65625 C 10.828125 -8.925781 10.925781 -8.390625 11.125 -8.046875 C 11.320312 -7.710938 11.921875 -7.382812 12.921875 -7.0625 C 13.921875 -6.75 15.492188 -6.59375 17.640625 -6.59375 Z M 17.640625 -6.59375 "/></g></g></g><g fill="#4c764a" fill-opacity="1"><g transform="translate(193.711094, 77.314028)"><g><path d="M 4.984375 -8.203125 L 16.765625 -42.3125 L 12.15625 -42.75 L 12.15625 -48.6875 L 28.921875 -48.6875 L 43.84375 -6.4375 L 43.921875 -6.4375 L 48.09375 -6.21875 L 48.09375 0 L 29.203125 0 L 29.203125 -5.921875 L 31.984375 -6.15625 C 32.816406 -6.25 33.378906 -6.441406 33.671875 -6.734375 C 33.960938 -7.023438 33.988281 -7.5625 33.75 -8.34375 L 32.203125 -12.890625 L 15.078125 -12.890625 L 12.890625 -6.4375 L 17.28125 -6.21875 L 17.28125 0 L 0.359375 0 L 0.359375 -5.921875 L 2.78125 -6.15625 C 3.800781 -6.25 4.535156 -6.929688 4.984375 -8.203125 Z M 23.640625 -40.484375 L 16.84375 -19.625 L 30.453125 -19.625 L 23.859375 -40.484375 Z M 23.640625 -40.484375 "/></g></g></g><g fill="#4c764a" fill-opacity="1"><g transform="translate(242.167447, 77.314028)"><g><path d="M 2.484375 0 L 2.484375 -5.921875 L 4.90625 -6.15625 C 6.320312 -6.300781 7.03125 -6.984375 7.03125 -8.203125 L 7.03125 -42.234375 L 2.859375 -42.453125 L 2.859375 -48.6875 L 38.21875 -48.6875 L 38.21875 -36.53125 L 30.75 -36.015625 L 30.75 -38.9375 C 30.75 -39.769531 30.625 -40.359375 30.375 -40.703125 C 30.132812 -41.046875 29.550781 -41.21875 28.625 -41.21875 L 15.953125 -41.21875 L 15.953125 -28.25 L 33.96875 -28.25 L 33.96875 -20.796875 L 15.953125 -20.796875 L 15.953125 -6.4375 L 22.46875 -6.21875 L 22.46875 0 Z M 2.484375 0 "/></g></g></g><g fill="#4c764a" fill-opacity="1"><g transform="translate(281.913367, 77.314028)"><g><path d="M 4.984375 -8.203125 L 16.765625 -42.3125 L 12.15625 -42.75 L 12.15625 -48.6875 L 28.921875 -48.6875 L 43.84375 -6.4375 L 43.921875 -6.4375 L 48.09375 -6.21875 L 48.09375 0 L 29.203125 0 L 29.203125 -5.921875 L 31.984375 -6.15625 C 32.816406 -6.25 33.378906 -6.441406 33.671875 -6.734375 C 33.960938 -7.023438 33.988281 -7.5625 33.75 -8.34375 L 32.203125 -12.890625 L 15.078125 -12.890625 L 12.890625 -6.4375 L 17.28125 -6.21875 L 17.28125 0 L 0.359375 0 L 0.359375 -5.921875 L 2.78125 -6.15625 C 3.800781 -6.25 4.535156 -6.929688 4.984375 -8.203125 Z M 23.640625 -40.484375 L 16.84375 -19.625 L 30.453125 -19.625 L 23.859375 -40.484375 Z M 23.640625 -40.484375 "/></g></g></g><g fill="#4c764a" fill-opacity="1"><g transform="translate(330.369719, 77.314028)"><g><path d="M 37.109375 0 L 2.34375 0 L 2.34375 -5.921875 L 4.765625 -6.15625 C 6.171875 -6.300781 6.875 -6.984375 6.875 -8.203125 L 6.875 -42.234375 L 2.703125 -42.453125 L 2.703125 -48.6875 L 20.34375 -48.6875 L 20.34375 -42.75 L 17.9375 -42.53125 C 16.519531 -42.382812 15.8125 -41.601562 15.8125 -40.1875 L 15.8125 -7.546875 L 27.96875 -7.546875 C 28.644531 -7.546875 29.09375 -7.726562 29.3125 -8.09375 C 29.53125 -8.457031 29.640625 -9.050781 29.640625 -9.875 L 29.640625 -15 L 37.109375 -14.5 Z M 37.109375 0 "/></g></g></g><g clip-path="url(#id5)"><path fill="#f08d1e" d="M 159.542969 114.136719 L 365.808594 114.136719 L 365.808594 116.777344 L 159.542969 116.777344 Z M 159.542969 114.136719 " fill-opacity="1" fill-rule="nonzero"/></g><g fill="#f08d1e" fill-opacity="1"><g transform="translate(159.541516, 112.155016)"><g><path d="M 11.640625 0.5625 C 9.609375 0.5625 7.828125 0.0664062 6.296875 -0.921875 C 4.765625 -1.910156 3.582031 -3.289062 2.75 -5.0625 C 1.925781 -6.832031 1.515625 -8.875 1.515625 -11.1875 C 1.515625 -13.5 1.953125 -15.539062 2.828125 -17.3125 C 3.703125 -19.082031 4.925781 -20.460938 6.5 -21.453125 C 8.070312 -22.441406 9.878906 -22.9375 11.921875 -22.9375 C 13.835938 -22.9375 15.457031 -22.453125 16.78125 -21.484375 L 18.484375 -22.9375 L 19.078125 -22.9375 L 19.078125 -16 L 18.484375 -16 L 16.640625 -20.609375 C 15.296875 -21.734375 13.722656 -22.296875 11.921875 -22.296875 C 10.609375 -22.296875 9.4375 -21.957031 8.40625 -21.28125 C 7.375 -20.613281 6.5625 -19.632812 5.96875 -18.34375 C 5.382812 -17.0625 5.09375 -15.535156 5.09375 -13.765625 L 5.09375 -8.640625 C 5.09375 -6.867188 5.363281 -5.335938 5.90625 -4.046875 C 6.457031 -2.765625 7.222656 -1.78125 8.203125 -1.09375 C 9.179688 -0.414062 10.328125 -0.078125 11.640625 -0.078125 C 13.242188 -0.078125 14.488281 -0.570312 15.375 -1.5625 C 16.257812 -2.550781 16.703125 -3.875 16.703125 -5.53125 L 16.703125 -8.140625 L 14.09375 -8.53125 L 14.09375 -9.140625 L 22.453125 -9.140625 L 22.453125 -8.53125 L 19.859375 -8.140625 L 19.859375 -5.53125 C 19.859375 -4.46875 19.566406 -3.472656 18.984375 -2.546875 C 18.410156 -1.628906 17.507812 -0.878906 16.28125 -0.296875 C 15.050781 0.273438 13.503906 0.5625 11.640625 0.5625 Z M 11.640625 0.5625 "/></g></g></g><g fill="#f08d1e" fill-opacity="1"><g transform="translate(182.441709, 112.155016)"><g><path d="M 0.75 -0.5625 L 2.71875 -0.84375 L 2.71875 -13.65625 L 0.75 -13.921875 L 0.75 -14.484375 L 5.515625 -14.484375 L 5.515625 -12.328125 C 6.679688 -13.929688 8.003906 -14.734375 9.484375 -14.734375 C 10.191406 -14.734375 10.816406 -14.550781 11.359375 -14.1875 C 11.898438 -13.832031 12.171875 -13.316406 12.171875 -12.640625 C 12.171875 -12.160156 12.007812 -11.753906 11.6875 -11.421875 C 11.375 -11.097656 10.957031 -10.9375 10.4375 -10.9375 C 9.832031 -10.9375 9.347656 -11.171875 8.984375 -11.640625 C 9.179688 -11.898438 9.28125 -12.175781 9.28125 -12.46875 C 9.28125 -12.789062 9.171875 -13.046875 8.953125 -13.234375 C 8.742188 -13.429688 8.460938 -13.53125 8.109375 -13.53125 C 7.722656 -13.53125 7.320312 -13.347656 6.90625 -12.984375 C 6.5 -12.628906 6.035156 -12.066406 5.515625 -11.296875 L 5.515625 -0.84375 L 7.75 -0.5625 L 7.75 0 L 0.75 0 Z M 0.75 -0.5625 "/></g></g></g><g fill="#f08d1e" fill-opacity="1"><g transform="translate(194.968319, 112.155016)"><g><path d="M 8.453125 0.28125 C 7.109375 0.28125 5.882812 -0.03125 4.78125 -0.65625 C 3.675781 -1.28125 2.800781 -2.164062 2.15625 -3.3125 C 1.519531 -4.457031 1.203125 -5.769531 1.203125 -7.25 C 1.203125 -8.71875 1.519531 -10.019531 2.15625 -11.15625 C 2.800781 -12.289062 3.675781 -13.171875 4.78125 -13.796875 C 5.882812 -14.421875 7.109375 -14.734375 8.453125 -14.734375 C 9.785156 -14.734375 11.003906 -14.421875 12.109375 -13.796875 C 13.210938 -13.171875 14.082031 -12.289062 14.71875 -11.15625 C 15.363281 -10.019531 15.6875 -8.71875 15.6875 -7.25 C 15.6875 -5.769531 15.363281 -4.457031 14.71875 -3.3125 C 14.082031 -2.164062 13.210938 -1.28125 12.109375 -0.65625 C 11.003906 -0.03125 9.785156 0.28125 8.453125 0.28125 Z M 8.453125 -0.328125 C 9.828125 -0.328125 10.863281 -0.832031 11.5625 -1.84375 C 12.257812 -2.851562 12.609375 -4.1875 12.609375 -5.84375 L 12.609375 -8.640625 C 12.609375 -10.296875 12.257812 -11.625 11.5625 -12.625 C 10.863281 -13.625 9.828125 -14.125 8.453125 -14.125 C 7.066406 -14.125 6.023438 -13.625 5.328125 -12.625 C 4.628906 -11.625 4.28125 -10.296875 4.28125 -8.640625 L 4.28125 -5.84375 C 4.28125 -4.1875 4.628906 -2.851562 5.328125 -1.84375 C 6.023438 -0.832031 7.066406 -0.328125 8.453125 -0.328125 Z M 8.453125 -0.328125 "/></g></g></g><g fill="#f08d1e" fill-opacity="1"><g transform="translate(212.024633, 112.155016)"><g><path d="M 7.40625 0.5625 L 1.421875 -13.65625 L -0.390625 -13.921875 L -0.390625 -14.484375 L 5.875 -14.484375 L 5.875 -13.921875 L 4.5625 -13.5625 L 8.78125 -3.046875 L 11.265625 -9.84375 L 9.625 -13.65625 L 8.171875 -13.921875 L 8.171875 -14.484375 L 14.765625 -14.484375 L 14.765625 -13.921875 L 12.75 -13.5625 L 16.984375 -3.046875 L 20.75 -13.171875 L 18.40625 -13.90625 L 18.40625 -14.453125 L 23.265625 -14.453125 L 23.265625 -13.90625 L 21.53125 -13.234375 L 16.390625 0.5625 L 15.609375 0.5625 L 11.65625 -8.890625 L 8.1875 0.5625 Z M 7.40625 0.5625 "/></g></g></g><g fill="#f08d1e" fill-opacity="1"><g transform="translate(235.176471, 112.155016)"><g/></g></g><g fill="#f08d1e" fill-opacity="1"><g transform="translate(242.026964, 112.155016)"><g><path d="M 5.671875 0 L 5.671875 -0.59375 L 8.25 -1 L 8.25 -21.671875 L 3.640625 -21.671875 L 1.515625 -16.140625 L 0.703125 -16.140625 L 0.703125 -22.375 L 18.90625 -22.375 L 18.90625 -16.140625 L 18.0625 -16.140625 L 15.96875 -21.671875 L 11.328125 -21.671875 L 11.328125 -1 L 13.90625 -0.59375 L 13.90625 0 Z M 5.671875 0 "/></g></g></g><g fill="#f08d1e" fill-opacity="1"><g transform="translate(261.767549, 112.155016)"><g><path d="M 8.453125 0.28125 C 7.109375 0.28125 5.882812 -0.03125 4.78125 -0.65625 C 3.675781 -1.28125 2.800781 -2.164062 2.15625 -3.3125 C 1.519531 -4.457031 1.203125 -5.769531 1.203125 -7.25 C 1.203125 -8.71875 1.519531 -10.019531 2.15625 -11.15625 C 2.800781 -12.289062 3.675781 -13.171875 4.78125 -13.796875 C 5.882812 -14.421875 7.109375 -14.734375 8.453125 -14.734375 C 9.785156 -14.734375 11.003906 -14.421875 12.109375 -13.796875 C 13.210938 -13.171875 14.082031 -12.289062 14.71875 -11.15625 C 15.363281 -10.019531 15.6875 -8.71875 15.6875 -7.25 C 15.6875 -5.769531 15.363281 -4.457031 14.71875 -3.3125 C 14.082031 -2.164062 13.210938 -1.28125 12.109375 -0.65625 C 11.003906 -0.03125 9.785156 0.28125 8.453125 0.28125 Z M 8.453125 -0.328125 C 9.828125 -0.328125 10.863281 -0.832031 11.5625 -1.84375 C 12.257812 -2.851562 12.609375 -4.1875 12.609375 -5.84375 L 12.609375 -8.640625 C 12.609375 -10.296875 12.257812 -11.625 11.5625 -12.625 C 10.863281 -13.625 9.828125 -14.125 8.453125 -14.125 C 7.066406 -14.125 6.023438 -13.625 5.328125 -12.625 C 4.628906 -11.625 4.28125 -10.296875 4.28125 -8.640625 L 4.28125 -5.84375 C 4.28125 -4.1875 4.628906 -2.851562 5.328125 -1.84375 C 6.023438 -0.832031 7.066406 -0.328125 8.453125 -0.328125 Z M 8.453125 -0.328125 "/></g></g></g><g fill="#f08d1e" fill-opacity="1"><g transform="translate(278.823868, 112.155016)"><g><path d="M 15.109375 -15.796875 C 15.109375 -15.078125 14.835938 -14.453125 14.296875 -13.921875 C 13.753906 -13.398438 12.894531 -13.066406 11.71875 -12.921875 C 12.207031 -12.210938 12.453125 -11.242188 12.453125 -10.015625 C 12.453125 -8.554688 11.929688 -7.40625 10.890625 -6.5625 C 9.859375 -5.726562 8.550781 -5.3125 6.96875 -5.3125 C 6.3125 -5.3125 5.710938 -5.367188 5.171875 -5.484375 C 3.984375 -5.410156 3.390625 -4.941406 3.390625 -4.078125 C 3.390625 -3.597656 3.585938 -3.242188 3.984375 -3.015625 C 4.390625 -2.796875 5.03125 -2.6875 5.90625 -2.6875 L 9.03125 -2.6875 C 10.539062 -2.6875 11.664062 -2.378906 12.40625 -1.765625 C 13.144531 -1.148438 13.515625 -0.0976562 13.515625 1.390625 C 13.515625 2.441406 13.25 3.40625 12.71875 4.28125 C 12.1875 5.15625 11.414062 5.847656 10.40625 6.359375 C 9.394531 6.867188 8.191406 7.125 6.796875 7.125 C 4.691406 7.125 3.140625 6.804688 2.140625 6.171875 C 1.140625 5.546875 0.640625 4.707031 0.640625 3.65625 C 0.640625 3.03125 0.878906 2.472656 1.359375 1.984375 C 1.847656 1.503906 2.515625 1.265625 3.359375 1.265625 C 3.523438 1.265625 3.867188 1.300781 4.390625 1.375 C 3.816406 1.988281 3.53125 2.710938 3.53125 3.546875 C 3.53125 4.347656 3.804688 5.046875 4.359375 5.640625 C 4.921875 6.242188 5.835938 6.546875 7.109375 6.546875 C 8.203125 6.546875 9.179688 6.332031 10.046875 5.90625 C 10.921875 5.488281 11.585938 4.941406 12.046875 4.265625 C 12.515625 3.597656 12.75 2.910156 12.75 2.203125 C 12.75 1.421875 12.5 0.859375 12 0.515625 C 11.5 0.171875 10.601562 0 9.3125 0 L 5.90625 0 C 4.59375 0 3.601562 -0.253906 2.9375 -0.765625 C 2.28125 -1.273438 1.953125 -2.035156 1.953125 -3.046875 C 1.953125 -3.722656 2.144531 -4.316406 2.53125 -4.828125 C 2.914062 -5.335938 3.40625 -5.664062 4 -5.8125 C 2.375 -6.507812 1.5625 -7.910156 1.5625 -10.015625 C 1.5625 -11.484375 2.070312 -12.632812 3.09375 -13.46875 C 4.125 -14.3125 5.414062 -14.734375 6.96875 -14.734375 C 8.925781 -14.734375 10.34375 -14.328125 11.21875 -13.515625 C 11.738281 -13.609375 12.128906 -13.78125 12.390625 -14.03125 C 12.648438 -14.28125 12.78125 -14.5625 12.78125 -14.875 C 12.78125 -15.175781 12.695312 -15.40625 12.53125 -15.5625 C 12.363281 -15.71875 12.164062 -15.796875 11.9375 -15.796875 C 11.9375 -16.210938 12.085938 -16.570312 12.390625 -16.875 C 12.703125 -17.1875 13.078125 -17.34375 13.515625 -17.34375 C 13.972656 -17.34375 14.351562 -17.203125 14.65625 -16.921875 C 14.957031 -16.640625 15.109375 -16.265625 15.109375 -15.796875 Z M 9.8125 -10.71875 C 9.8125 -11.851562 9.570312 -12.726562 9.09375 -13.34375 C 8.625 -13.957031 7.914062 -14.265625 6.96875 -14.265625 C 5.113281 -14.265625 4.1875 -13.082031 4.1875 -10.71875 L 4.1875 -9.34375 C 4.1875 -8.238281 4.414062 -7.367188 4.875 -6.734375 C 5.332031 -6.109375 6.03125 -5.796875 6.96875 -5.796875 C 7.914062 -5.796875 8.625 -6.109375 9.09375 -6.734375 C 9.570312 -7.367188 9.8125 -8.238281 9.8125 -9.34375 Z M 9.8125 -10.71875 "/></g></g></g><g fill="#f08d1e" fill-opacity="1"><g transform="translate(293.950861, 112.155016)"><g><path d="M 8.59375 0.28125 C 7.207031 0.28125 5.953125 -0.03125 4.828125 -0.65625 C 3.710938 -1.28125 2.828125 -2.160156 2.171875 -3.296875 C 1.523438 -4.429688 1.203125 -5.75 1.203125 -7.25 C 1.203125 -8.738281 1.519531 -10.046875 2.15625 -11.171875 C 2.800781 -12.296875 3.671875 -13.171875 4.765625 -13.796875 C 5.859375 -14.421875 7.078125 -14.734375 8.421875 -14.734375 C 9.597656 -14.734375 10.648438 -14.472656 11.578125 -13.953125 C 12.515625 -13.429688 13.242188 -12.707031 13.765625 -11.78125 C 14.285156 -10.863281 14.554688 -9.804688 14.578125 -8.609375 L 4.28125 -8.609375 L 4.28125 -5.84375 C 4.28125 -4.207031 4.644531 -2.878906 5.375 -1.859375 C 6.113281 -0.835938 7.1875 -0.328125 8.59375 -0.328125 C 9.875 -0.328125 11.007812 -0.691406 12 -1.421875 C 12.988281 -2.148438 13.59375 -3.09375 13.8125 -4.25 L 14.453125 -4.25 C 14.191406 -2.875 13.53125 -1.773438 12.46875 -0.953125 C 11.40625 -0.128906 10.113281 0.28125 8.59375 0.28125 Z M 11.5 -9.3125 C 11.5 -10.9375 11.242188 -12.144531 10.734375 -12.9375 C 10.234375 -13.726562 9.453125 -14.125 8.390625 -14.125 C 7.140625 -14.125 6.171875 -13.6875 5.484375 -12.8125 C 4.796875 -11.9375 4.40625 -10.769531 4.3125 -9.3125 Z M 11.5 -9.3125 "/></g></g></g><g fill="#f08d1e" fill-opacity="1"><g transform="translate(309.804847, 112.155016)"><g><path d="M 6.546875 0.28125 C 5.316406 0.28125 4.332031 -0.0234375 3.59375 -0.640625 C 2.851562 -1.253906 2.484375 -2.234375 2.484375 -3.578125 L 2.484375 -13.65625 L 0.5 -13.921875 L 0.5 -14.484375 L 2.484375 -14.484375 L 2.484375 -16.8125 L 5.28125 -17.515625 L 5.28125 -14.484375 L 8.921875 -14.484375 L 8.921875 -13.921875 L 5.28125 -13.65625 L 5.28125 -3.640625 C 5.28125 -1.660156 5.988281 -0.671875 7.40625 -0.671875 C 7.707031 -0.671875 7.992188 -0.71875 8.265625 -0.8125 C 8.535156 -0.90625 8.75 -1 8.90625 -1.09375 C 9.0625 -1.1875 9.160156 -1.25 9.203125 -1.28125 L 9.5625 -0.84375 C 8.726562 -0.09375 7.722656 0.28125 6.546875 0.28125 Z M 6.546875 0.28125 "/></g></g></g><g fill="#f08d1e" fill-opacity="1"><g transform="translate(319.675152, 112.155016)"><g><path d="M 0.59375 -0.5625 L 2.546875 -0.84375 L 2.546875 -21.53125 L 0.59375 -21.8125 L 0.59375 -22.375 L 5.34375 -22.375 L 5.34375 -11.46875 C 6.03125 -12.476562 6.835938 -13.273438 7.765625 -13.859375 C 8.703125 -14.441406 9.710938 -14.734375 10.796875 -14.734375 C 12.140625 -14.734375 13.195312 -14.394531 13.96875 -13.71875 C 14.738281 -13.050781 15.125 -12.054688 15.125 -10.734375 L 15.125 -0.84375 L 17.09375 -0.5625 L 17.09375 0 L 10.65625 0 L 10.65625 -0.5625 L 12.328125 -0.84375 L 12.328125 -10.6875 C 12.328125 -11.65625 12.128906 -12.40625 11.734375 -12.9375 C 11.347656 -13.46875 10.742188 -13.734375 9.921875 -13.734375 C 9.066406 -13.734375 8.242188 -13.421875 7.453125 -12.796875 C 6.660156 -12.171875 5.957031 -11.398438 5.34375 -10.484375 L 5.34375 -0.84375 L 7.015625 -0.5625 L 7.015625 0 L 0.59375 0 Z M 0.59375 -0.5625 "/></g></g></g><g fill="#f08d1e" fill-opacity="1"><g transform="translate(337.430484, 112.155016)"><g><path d="M 8.59375 0.28125 C 7.207031 0.28125 5.953125 -0.03125 4.828125 -0.65625 C 3.710938 -1.28125 2.828125 -2.160156 2.171875 -3.296875 C 1.523438 -4.429688 1.203125 -5.75 1.203125 -7.25 C 1.203125 -8.738281 1.519531 -10.046875 2.15625 -11.171875 C 2.800781 -12.296875 3.671875 -13.171875 4.765625 -13.796875 C 5.859375 -14.421875 7.078125 -14.734375 8.421875 -14.734375 C 9.597656 -14.734375 10.648438 -14.472656 11.578125 -13.953125 C 12.515625 -13.429688 13.242188 -12.707031 13.765625 -11.78125 C 14.285156 -10.863281 14.554688 -9.804688 14.578125 -8.609375 L 4.28125 -8.609375 L 4.28125 -5.84375 C 4.28125 -4.207031 4.644531 -2.878906 5.375 -1.859375 C 6.113281 -0.835938 7.1875 -0.328125 8.59375 -0.328125 C 9.875 -0.328125 11.007812 -0.691406 12 -1.421875 C 12.988281 -2.148438 13.59375 -3.09375 13.8125 -4.25 L 14.453125 -4.25 C 14.191406 -2.875 13.53125 -1.773438 12.46875 -0.953125 C 11.40625 -0.128906 10.113281 0.28125 8.59375 0.28125 Z M 11.5 -9.3125 C 11.5 -10.9375 11.242188 -12.144531 10.734375 -12.9375 C 10.234375 -13.726562 9.453125 -14.125 8.390625 -14.125 C 7.140625 -14.125 6.171875 -13.6875 5.484375 -12.8125 C 4.796875 -11.9375 4.40625 -10.769531 4.3125 -9.3125 Z M 11.5 -9.3125 "/></g></g></g><g fill="#f08d1e" fill-opacity="1"><g transform="translate(353.28446, 112.155016)"><g><path d="M 0.75 -0.5625 L 2.71875 -0.84375 L 2.71875 -13.65625 L 0.75 -13.921875 L 0.75 -14.484375 L 5.515625 -14.484375 L 5.515625 -12.328125 C 6.679688 -13.929688 8.003906 -14.734375 9.484375 -14.734375 C 10.191406 -14.734375 10.816406 -14.550781 11.359375 -14.1875 C 11.898438 -13.832031 12.171875 -13.316406 12.171875 -12.640625 C 12.171875 -12.160156 12.007812 -11.753906 11.6875 -11.421875 C 11.375 -11.097656 10.957031 -10.9375 10.4375 -10.9375 C 9.832031 -10.9375 9.347656 -11.171875 8.984375 -11.640625 C 9.179688 -11.898438 9.28125 -12.175781 9.28125 -12.46875 C 9.28125 -12.789062 9.171875 -13.046875 8.953125 -13.234375 C 8.742188 -13.429688 8.460938 -13.53125 8.109375 -13.53125 C 7.722656 -13.53125 7.320312 -13.347656 6.90625 -12.984375 C 6.5 -12.628906 6.035156 -12.066406 5.515625 -11.296875 L 5.515625 -0.84375 L 7.75 -0.5625 L 7.75 0 L 0.75 0 Z M 0.75 -0.5625 "/></g></g></g></svg>